HIERARCHY
ROOT RootJoint
{
    OFFSET   0.000000   0.000000   0.000000
    CHANNELS 6 Xposition Yposition Zposition Xrotation Yrotation Zrotation
    JOINT pelvis_lowerback
    {
        OFFSET   0.000000   0.093605   0.000000
        CHANNELS 3 Xrotation Yrotation Zrotation
        JOINT lowerback_torso
        {
            OFFSET   0.000000   0.100000   0.000000
            CHANNELS 3 Xrotation Yrotation Zrotation
            JOINT torso_head
            {
                OFFSET   0.000000   0.282350   0.000000
                CHANNELS 3 Xrotation Yrotation Zrotation
                End Site
                {
                    OFFSET   0.000000   0.192650   0.000000
                }
            }
            JOINT rTorso_Clavicle
            {
                OFFSET  -0.001000   0.157500   0.000000
                CHANNELS 3 Xrotation Yrotation Zrotation
                JOINT rShoulder
                {
                    OFFSET  -0.117647   0.000000   0.000000
                    CHANNELS 3 Xrotation Yrotation Zrotation
                    JOINT rElbow
                    {
                        OFFSET  -0.245000   0.000000   0.000000
                        CHANNELS 3 Xrotation Yrotation Zrotation
                        JOINT rWrist
                        {
                            OFFSET  -0.240000   0.000000   0.000000
                            CHANNELS 3 Xrotation Yrotation Zrotation
                            End Site
                            {
                                OFFSET  -0.116353  -0.002500   0.000000
                            }
                        }
                    }
                }
            }
            JOINT lTorso_Clavicle
            {
                OFFSET   0.001000   0.157500   0.000000
                CHANNELS 3 Xrotation Yrotation Zrotation
                JOINT lShoulder
                {
                    OFFSET   0.117647   0.000000   0.000000
                    CHANNELS 3 Xrotation Yrotation Zrotation
                    JOINT lElbow
                    {
                        OFFSET   0.245000   0.000000   0.000000
                        CHANNELS 3 Xrotation Yrotation Zrotation
                        JOINT lWrist
                        {
                            OFFSET   0.240000   0.000000   0.000000
                            CHANNELS 3 Xrotation Yrotation Zrotation
                            End Site
                            {
                                OFFSET   0.116353  -0.002500   0.000000
                            }
                        }
                    }
                }
            }
        }
    }
    JOINT rHip
    {
        OFFSET  -0.100000  -0.051395   0.000000
        CHANNELS 3 Xrotation Yrotation Zrotation
        JOINT rKnee
        {
            OFFSET   0.000000  -0.410000   0.000000
            CHANNELS 3 Xrotation Yrotation Zrotation
            JOINT rAnkle
            {
                OFFSET   0.000000  -0.390000   0.000000
                CHANNELS 3 Xrotation Yrotation Zrotation
                JOINT rToeJoint
                {
                    OFFSET   0.000000  -0.050000   0.130000
                    CHANNELS 3 Xrotation Yrotation Zrotation
                    End Site
                    {
                        OFFSET  -0.010000   0.002000   0.060000
                    }
                }
            }
        }
    }
    JOINT lHip
    {
        OFFSET   0.100000  -0.051395   0.000000
        CHANNELS 3 Xrotation Yrotation Zrotation
        JOINT lKnee
        {
            OFFSET   0.000000  -0.410000   0.000000
            CHANNELS 3 Xrotation Yrotation Zrotation
            JOINT lAnkle
            {
                OFFSET   0.000000  -0.390000   0.000000
                CHANNELS 3 Xrotation Yrotation Zrotation
                JOINT lToeJoint
                {
                    OFFSET   0.000000  -0.050000   0.130000
                    CHANNELS 3 Xrotation Yrotation Zrotation
                    End Site
                    {
                        OFFSET   0.010000   0.002000   0.060000
                    }
                }
            }
        }
    }
}
MOTION
Frames: 8
Frame Time:   0.008333
 -2.346737   0.718007   3.905524  -7.845162  -7.262233  -1.118281  44.776659  -0.126780  -2.649650  -8.442126  -1.304424  -0.488312 -10.074300   1.069065  -1.699335  -9.955341  15.849590  -0.596369  -8.589138  12.319849  26.852850  -0.653726  71.703021   0.432284   0.804134   1.235985  -7.313771  -9.494733 -13.459992   6.104282 -15.292729 -11.295210 -19.034889  -0.750893 -68.413971  -0.529669  -2.285979  -3.823914   8.122371 -38.535899  -1.203440  -8.211993  84.723392   0.009714   0.007883 -32.916289  -9.091116   1.457166  -6.668363   0.014789   0.034193 -41.150211   0.920663   7.921713  87.349995  -0.003366   0.017841 -26.291139   7.206584   3.147112 -19.938787  -0.032066   0.001406
 -2.345779   0.735534   3.909743  -7.872074  -7.071888  -0.916347  43.187536   0.087651  -2.953484  -7.776562  -1.505805  -0.561440  -9.223624   1.092854  -1.724898 -10.591337  15.663479  -2.499943  -9.593069  12.070129  26.541649  -0.721584  73.702105   0.489281   0.593940   1.300885  -7.103373  -9.886231 -13.529462   8.436783 -17.464744 -11.503254 -18.056860  -0.773602 -69.844225  -0.550323  -2.423045  -3.990837   8.012358 -36.697476  -1.402219  -8.513030  81.635458   0.004693   0.008214 -30.016703  -9.340107   2.361847  -9.117736   0.020775   0.035844 -39.434038   1.090159   7.349972  84.362889  -0.002946   0.021009 -23.160751   7.377868   2.632173 -22.345130  -0.034200   0.000410
 -2.344980   0.753815   3.914186  -7.810192  -6.818902  -0.722991  41.539648   0.293162  -3.258820  -7.113029  -1.734263  -0.638914  -8.312040   1.121423  -1.757313 -11.187963  15.359817  -4.441834 -10.508506  11.765759  26.151093  -0.783573  75.570970   0.543438   0.396931   1.364696  -6.908933 -10.309027 -13.535750  10.797287 -19.523816 -11.709804 -17.028810  -0.786955 -71.175079  -0.564253  -2.545372  -4.140579   8.061950 -34.844627  -1.606775  -8.762087  78.327060  -0.001878   0.005914 -26.832472  -9.499745   3.252148 -11.805989   0.024834   0.034668 -37.695908   1.190071   6.782506  81.119118  -0.003211   0.023179 -19.848221   7.492974   2.148799 -24.873268  -0.035332  -0.000245
 -2.344222   0.772504   3.918975  -7.602865  -6.575078  -0.516798  39.811403   0.487085  -3.574024  -6.587818  -1.966449  -0.736673  -7.433440   1.148593  -1.798120 -11.758661  15.002565  -6.335757 -11.353199  11.434094  25.725694  -0.846625  77.307618   0.603438   0.209617   1.375385  -6.774083 -10.740036 -13.490021  13.088811 -21.458413 -11.909262 -16.008826  -0.793518 -72.414752  -0.574616  -2.656469  -4.270210   8.229027 -33.018244  -1.836467  -8.964242  74.876118  -0.007184   0.002568 -23.469434  -9.606781   4.140449 -14.696420   0.028188   0.033766 -35.968071   1.238483   6.223278  77.703532  -0.002701   0.025391 -16.407664   7.526976   1.692950 -27.537329  -0.035864   0.001392
 -2.343422   0.791367   3.924106  -7.282226  -6.367940  -0.303923  38.032348   0.678869  -3.889859  -6.209849  -2.190310  -0.854666  -6.608686   1.173520  -1.844221 -12.314890  14.634627  -8.161939 -12.143840  11.100350  25.284048  -0.915671  78.923215   0.673823   0.029751   1.339261  -6.704518 -11.169962 -13.417450  15.280578 -23.272258 -12.108333 -15.022071  -0.794186 -73.570042  -0.581810  -2.760513  -4.381050   8.475595 -31.256473  -2.074196  -9.144485  71.270520  -0.011101  -0.000286 -20.014735  -9.692443   5.023660 -17.164145   0.029224   0.033221 -34.285828   1.256101   5.684735  74.147610  -0.001788   0.027959 -12.915011   7.511275   1.249446 -29.723962  -0.034936   0.003405
 -2.342579   0.810258   3.929566  -6.882626  -6.187176  -0.096303  36.228267   0.869702  -4.192778  -5.961879  -2.403778  -0.982163  -5.840586   1.195883  -1.891724 -12.859683  14.277901  -9.910098 -12.889671  10.779043  24.838549  -0.995432  80.429611   0.758563  -0.142039   1.280214  -6.693132 -11.592424 -13.336232  17.361062 -24.971226 -12.313485 -14.081028  -0.789972 -74.649135  -0.586141  -2.858132  -4.486876   8.769668 -29.555175  -2.309602  -9.306387  67.569306  -0.014345  -0.002676 -16.510310  -9.729697   5.897475 -18.794578   0.027439   0.030717 -32.655419   1.257776   5.179598  70.510567  -0.001394   0.030230  -9.374336   7.468807   0.813300 -31.188362  -0.032168   0.004325
 -2.341705   0.829011   3.935348  -6.420478  -6.020239   0.109613  34.406638   1.058280  -4.482079  -5.828182  -2.608483  -1.114480  -5.126842   1.215659  -1.938392 -13.391429  13.941088 -11.576664 -13.594589  10.476831  24.397712  -1.092332  81.837203   0.863214  -0.305328   1.218738  -6.726071 -12.002695 -13.256930  19.329452 -26.561235 -12.527924 -13.191057  -0.781984 -75.659056  -0.588028  -2.949299  -4.600425   9.086193 -27.894105  -2.541213  -9.459931  63.791721  -0.017307  -0.004828 -13.125596  -9.717532   6.709414 -19.052269   0.022442   0.025191 -31.079458   1.249429   4.704113  66.822869  -0.001696   0.031814  -5.782053   7.400500   0.386842 -31.945393  -0.027894   0.004259
 -2.341895   0.847170   3.941557  -5.807834  -5.385779  -1.279069  31.951034   1.897167  -2.969965  -5.249535  -2.849765  -0.816749  -4.134809   1.310484  -2.521582 -13.031159  13.747092 -14.110518 -14.432782  10.095548  23.967909  -1.023491  82.576477   0.819958  -0.375138   1.504293  -7.081991 -11.771092 -12.747090  21.487278 -27.440248 -12.004169 -12.603131  -0.768330 -77.042015  -0.568124  -3.125830  -5.000448   9.959665 -26.124516  -3.515717  -7.856612  60.788218  -0.021697  -0.023172 -10.529371  -9.618244   7.362604 -16.756292   0.011687   0.030254 -30.093284   0.647528   5.890437  63.769097  -0.012717   0.012333  -2.332138   7.387162  -0.186451 -33.108954  -0.025370  -0.004953
